<?xml version="1.0" encoding="utf-8"?>
<!-- Generator: Adobe Illustrator 16.0.0, SVG Export Plug-In . SVG Version: 6.00 Build 0)  -->
<!DOCTYPE svg PUBLIC "-//W3C//DTD SVG 1.1//EN" "http://www.w3.org/Graphics/SVG/1.1/DTD/svg11.dtd">
<svg version="1.1" id="Layer_1" xmlns="http://www.w3.org/2000/svg" xmlns:xlink="http://www.w3.org/1999/xlink" x="0px" y="0px"
	 width="118.786px" height="542.477px" viewBox="-30.867 0 118.786 542.477" enable-background="new -30.867 0 118.786 542.477"
	 xml:space="preserve">
<g>
	<rect y="0" fill="#0000FF" width="87.918" height="44.68"/>
	<rect y="49.641" fill="#009AFF" width="87.918" height="44.682"/>
	<rect y="99.287" fill="#00CDFF" width="87.918" height="44.681"/>
	<rect y="148.93" fill="#A0E6FE" width="87.918" height="44.68"/>
	<rect y="198.576" fill="#D0F7FC" width="87.918" height="44.681"/>
	<rect y="248.221" fill="#FDFEE6" width="87.918" height="44.68"/>
	<rect y="297.866" fill="#FFFF67" width="87.918" height="44.68"/>
	<rect y="347.51" fill="#FFCA00" width="87.918" height="44.68"/>
	<rect y="397.153" fill="#FE9935" width="87.918" height="44.68"/>
	<rect y="447.797" fill="#FF4D1B" width="87.918" height="44.68"/>
	<rect y="497.797" fill="#FF0000" width="87.918" height="44.68"/>
</g>
<g>
	<path d="M-10.319,22.057c0,0.756-0.081,1.413-0.243,1.971c-0.162,0.558-0.386,1.019-0.672,1.383
		c-0.286,0.364-0.624,0.635-1.014,0.813c-0.39,0.178-0.811,0.267-1.263,0.267c-0.452,0-0.871-0.089-1.257-0.267
		c-0.386-0.178-0.721-0.449-1.005-0.813c-0.284-0.364-0.506-0.825-0.666-1.383c-0.16-0.558-0.24-1.215-0.24-1.971
		c0-0.76,0.08-1.418,0.24-1.974c0.16-0.556,0.382-1.016,0.666-1.38c0.284-0.364,0.619-0.635,1.005-0.813
		c0.386-0.178,0.805-0.267,1.257-0.267c0.452,0,0.873,0.089,1.263,0.267c0.39,0.178,0.728,0.449,1.014,0.813
		c0.286,0.364,0.51,0.824,0.672,1.38S-10.319,21.296-10.319,22.057z M-11.85,22.057c0-0.628-0.046-1.148-0.138-1.56
		c-0.092-0.412-0.215-0.74-0.369-0.984c-0.154-0.244-0.331-0.415-0.531-0.513c-0.2-0.098-0.408-0.147-0.624-0.147
		c-0.212,0-0.417,0.049-0.615,0.147c-0.198,0.098-0.373,0.269-0.525,0.513c-0.152,0.244-0.273,0.572-0.363,0.984
		c-0.09,0.412-0.135,0.932-0.135,1.56s0.045,1.148,0.135,1.56c0.09,0.412,0.211,0.74,0.363,0.984
		c0.152,0.244,0.327,0.415,0.525,0.513c0.198,0.098,0.403,0.147,0.615,0.147c0.216,0,0.424-0.049,0.624-0.147
		c0.2-0.098,0.377-0.269,0.531-0.513c0.154-0.244,0.277-0.572,0.369-0.984C-11.896,23.205-11.85,22.685-11.85,22.057z"/>
	<path d="M-9.605,19.657c0-0.284,0.053-0.551,0.159-0.801c0.105-0.25,0.252-0.467,0.438-0.651c0.186-0.184,0.406-0.329,0.66-0.435
		s0.527-0.159,0.819-0.159c0.292,0,0.565,0.053,0.819,0.159s0.474,0.251,0.66,0.435c0.186,0.184,0.333,0.401,0.441,0.651
		c0.108,0.25,0.162,0.517,0.162,0.801c0,0.276-0.054,0.538-0.162,0.786c-0.108,0.248-0.255,0.465-0.441,0.651
		c-0.186,0.186-0.406,0.333-0.66,0.441s-0.527,0.162-0.819,0.162c-0.292,0-0.565-0.054-0.819-0.162s-0.474-0.255-0.66-0.441
		c-0.186-0.186-0.333-0.403-0.438-0.651C-9.553,20.194-9.605,19.933-9.605,19.657z M-8.574,19.668c0,0.148,0.026,0.286,0.078,0.414
		c0.052,0.128,0.125,0.239,0.219,0.333c0.094,0.094,0.204,0.168,0.33,0.222c0.126,0.054,0.265,0.081,0.417,0.081
		c0.147,0,0.285-0.027,0.411-0.081c0.126-0.054,0.236-0.128,0.33-0.222c0.094-0.094,0.167-0.205,0.219-0.333
		c0.052-0.128,0.078-0.266,0.078-0.414c0-0.152-0.026-0.293-0.078-0.423c-0.052-0.13-0.125-0.243-0.219-0.339
		c-0.094-0.096-0.204-0.172-0.33-0.228c-0.126-0.056-0.263-0.084-0.411-0.084c-0.152,0-0.291,0.028-0.417,0.084
		c-0.126,0.056-0.236,0.132-0.33,0.228c-0.094,0.096-0.167,0.209-0.219,0.339C-8.547,19.375-8.574,19.517-8.574,19.668z"/>
</g>
<g>
	<path d="M-14.543,70.513c0.192-0.04,0.376-0.069,0.552-0.087c0.176-0.018,0.346-0.027,0.51-0.027c0.456,0,0.858,0.068,1.206,0.204
		c0.348,0.136,0.64,0.324,0.876,0.564c0.236,0.24,0.414,0.521,0.534,0.843c0.12,0.322,0.18,0.669,0.18,1.041
		c0,0.46-0.081,0.88-0.243,1.26c-0.162,0.38-0.387,0.705-0.675,0.975s-0.629,0.479-1.023,0.627s-0.823,0.222-1.287,0.222
		c-0.272,0-0.53-0.028-0.774-0.084c-0.244-0.056-0.473-0.131-0.687-0.225c-0.214-0.094-0.412-0.202-0.594-0.324
		c-0.182-0.122-0.345-0.251-0.489-0.387l0.456-0.63c0.096-0.136,0.222-0.204,0.378-0.204c0.1,0,0.202,0.032,0.306,0.096
		s0.223,0.134,0.357,0.21c0.134,0.076,0.292,0.146,0.474,0.21c0.182,0.064,0.401,0.096,0.657,0.096c0.272,0,0.512-0.044,0.72-0.132
		s0.381-0.211,0.519-0.369c0.138-0.158,0.242-0.346,0.312-0.564c0.07-0.218,0.105-0.455,0.105-0.711
		c0-0.472-0.137-0.841-0.411-1.107s-0.679-0.399-1.215-0.399c-0.412,0-0.834,0.076-1.266,0.228l-0.924-0.264l0.72-4.212h4.284v0.63
		c0,0.212-0.066,0.384-0.198,0.516c-0.132,0.132-0.356,0.198-0.672,0.198h-2.382L-14.543,70.513z"/>
	<path d="M-9.605,69.301c0-0.284,0.053-0.551,0.159-0.801c0.105-0.25,0.252-0.467,0.438-0.651c0.186-0.184,0.406-0.329,0.66-0.435
		s0.527-0.159,0.819-0.159c0.292,0,0.565,0.053,0.819,0.159s0.474,0.251,0.66,0.435c0.186,0.184,0.333,0.401,0.441,0.651
		c0.108,0.25,0.162,0.517,0.162,0.801c0,0.276-0.054,0.538-0.162,0.786c-0.108,0.248-0.255,0.465-0.441,0.651
		c-0.186,0.186-0.406,0.333-0.66,0.441s-0.527,0.162-0.819,0.162c-0.292,0-0.565-0.054-0.819-0.162s-0.474-0.255-0.66-0.441
		c-0.186-0.186-0.333-0.403-0.438-0.651C-9.553,69.839-9.605,69.577-9.605,69.301z M-8.574,69.313c0,0.148,0.026,0.286,0.078,0.414
		c0.052,0.128,0.125,0.239,0.219,0.333c0.094,0.094,0.204,0.168,0.33,0.222c0.126,0.054,0.265,0.081,0.417,0.081
		c0.147,0,0.285-0.027,0.411-0.081c0.126-0.054,0.236-0.128,0.33-0.222c0.094-0.094,0.167-0.205,0.219-0.333
		c0.052-0.128,0.078-0.266,0.078-0.414c0-0.152-0.026-0.293-0.078-0.423c-0.052-0.13-0.125-0.243-0.219-0.339
		c-0.094-0.096-0.204-0.172-0.33-0.228c-0.126-0.056-0.263-0.084-0.411-0.084c-0.152,0-0.291,0.028-0.417,0.084
		c-0.126,0.056-0.236,0.132-0.33,0.228c-0.094,0.096-0.167,0.209-0.219,0.339C-8.547,69.02-8.574,69.161-8.574,69.313z"/>
</g>
<g>
	<path d="M-17.728,124.572v1.11h-4.8v-1.11h1.758v-5.058c0-0.2,0.006-0.406,0.018-0.618L-22,119.939
		c-0.072,0.056-0.143,0.091-0.213,0.105c-0.07,0.014-0.136,0.015-0.198,0.003c-0.062-0.012-0.117-0.033-0.165-0.063
		c-0.048-0.03-0.084-0.063-0.108-0.099l-0.468-0.642l2.646-2.25h1.218v7.578H-17.728z"/>
	<path d="M-10.318,121.344c0,0.756-0.081,1.413-0.243,1.971c-0.162,0.558-0.386,1.019-0.672,1.383
		c-0.286,0.364-0.624,0.635-1.014,0.813c-0.39,0.178-0.811,0.267-1.263,0.267c-0.452,0-0.871-0.089-1.257-0.267
		c-0.386-0.178-0.721-0.449-1.005-0.813c-0.284-0.364-0.506-0.825-0.666-1.383c-0.16-0.558-0.24-1.215-0.24-1.971
		c0-0.76,0.08-1.418,0.24-1.974c0.16-0.556,0.382-1.016,0.666-1.38c0.284-0.364,0.619-0.635,1.005-0.813
		c0.386-0.178,0.805-0.267,1.257-0.267c0.452,0,0.873,0.089,1.263,0.267c0.39,0.178,0.728,0.449,1.014,0.813
		c0.286,0.364,0.51,0.824,0.672,1.38S-10.318,120.583-10.318,121.344z M-11.848,121.344c0-0.628-0.046-1.148-0.138-1.56
		c-0.092-0.412-0.215-0.74-0.369-0.984c-0.154-0.244-0.331-0.415-0.531-0.513c-0.2-0.098-0.408-0.147-0.624-0.147
		c-0.212,0-0.417,0.049-0.615,0.147c-0.198,0.098-0.373,0.269-0.525,0.513c-0.152,0.244-0.273,0.572-0.363,0.984
		c-0.09,0.412-0.135,0.932-0.135,1.56s0.045,1.148,0.135,1.56c0.09,0.412,0.211,0.74,0.363,0.984
		c0.152,0.244,0.327,0.415,0.525,0.513c0.198,0.098,0.403,0.147,0.615,0.147c0.216,0,0.424-0.049,0.624-0.147
		c0.2-0.098,0.377-0.269,0.531-0.513c0.154-0.244,0.277-0.572,0.369-0.984C-11.894,122.492-11.848,121.972-11.848,121.344z"/>
	<path d="M-9.604,118.944c0-0.284,0.053-0.551,0.159-0.801c0.105-0.25,0.252-0.467,0.438-0.651c0.186-0.184,0.406-0.329,0.66-0.435
		s0.527-0.159,0.819-0.159c0.292,0,0.565,0.053,0.819,0.159s0.474,0.251,0.66,0.435c0.186,0.184,0.333,0.401,0.441,0.651
		c0.108,0.25,0.162,0.517,0.162,0.801c0,0.276-0.054,0.538-0.162,0.786c-0.108,0.248-0.255,0.465-0.441,0.651
		c-0.186,0.186-0.406,0.333-0.66,0.441s-0.527,0.162-0.819,0.162c-0.292,0-0.565-0.054-0.819-0.162s-0.474-0.255-0.66-0.441
		c-0.186-0.186-0.333-0.403-0.438-0.651C-9.552,119.481-9.604,119.22-9.604,118.944z M-8.573,118.956
		c0,0.148,0.026,0.286,0.078,0.414c0.052,0.128,0.125,0.239,0.219,0.333c0.094,0.094,0.204,0.168,0.33,0.222
		c0.126,0.054,0.265,0.081,0.417,0.081c0.147,0,0.285-0.027,0.411-0.081c0.126-0.054,0.236-0.128,0.33-0.222
		c0.094-0.094,0.167-0.205,0.219-0.333c0.052-0.128,0.078-0.266,0.078-0.414c0-0.152-0.026-0.293-0.078-0.423
		c-0.052-0.13-0.125-0.243-0.219-0.339c-0.094-0.096-0.204-0.172-0.33-0.228c-0.126-0.056-0.263-0.084-0.411-0.084
		c-0.152,0-0.291,0.028-0.417,0.084c-0.126,0.056-0.236,0.132-0.33,0.228c-0.094,0.096-0.167,0.209-0.219,0.339
		C-8.546,118.663-8.573,118.804-8.573,118.956z"/>
</g>
<g>
	<path d="M-17.728,174.216v1.11h-4.8v-1.11h1.758v-5.058c0-0.2,0.006-0.406,0.018-0.618L-22,169.584
		c-0.072,0.056-0.143,0.091-0.213,0.105c-0.07,0.014-0.136,0.015-0.198,0.003c-0.062-0.012-0.117-0.033-0.165-0.063
		c-0.048-0.03-0.084-0.063-0.108-0.099l-0.468-0.642l2.646-2.25h1.218v7.578H-17.728z"/>
	<path d="M-14.542,169.8c0.192-0.04,0.376-0.069,0.552-0.087c0.176-0.018,0.346-0.027,0.51-0.027c0.456,0,0.858,0.068,1.206,0.204
		c0.348,0.136,0.64,0.324,0.876,0.564c0.236,0.24,0.414,0.521,0.534,0.843c0.12,0.322,0.18,0.669,0.18,1.041
		c0,0.46-0.081,0.88-0.243,1.26c-0.162,0.38-0.387,0.705-0.675,0.975s-0.629,0.479-1.023,0.627s-0.823,0.222-1.287,0.222
		c-0.272,0-0.53-0.028-0.774-0.084c-0.244-0.056-0.473-0.131-0.687-0.225c-0.214-0.094-0.412-0.202-0.594-0.324
		c-0.182-0.122-0.345-0.251-0.489-0.387l0.456-0.63c0.096-0.136,0.222-0.204,0.378-0.204c0.1,0,0.202,0.032,0.306,0.096
		s0.223,0.134,0.357,0.21c0.134,0.076,0.292,0.146,0.474,0.21c0.182,0.064,0.401,0.096,0.657,0.096c0.272,0,0.512-0.044,0.72-0.132
		s0.381-0.211,0.519-0.369c0.138-0.158,0.242-0.346,0.312-0.564c0.07-0.218,0.105-0.455,0.105-0.711
		c0-0.472-0.137-0.841-0.411-1.107s-0.679-0.399-1.215-0.399c-0.412,0-0.834,0.076-1.266,0.228l-0.924-0.264l0.72-4.212h4.284v0.63
		c0,0.212-0.066,0.384-0.198,0.516c-0.132,0.132-0.356,0.198-0.672,0.198h-2.382L-14.542,169.8z"/>
	<path d="M-9.604,168.588c0-0.284,0.053-0.551,0.159-0.801c0.105-0.25,0.252-0.467,0.438-0.651c0.186-0.184,0.406-0.329,0.66-0.435
		s0.527-0.159,0.819-0.159c0.292,0,0.565,0.053,0.819,0.159s0.474,0.251,0.66,0.435c0.186,0.184,0.333,0.401,0.441,0.651
		c0.108,0.25,0.162,0.517,0.162,0.801c0,0.276-0.054,0.538-0.162,0.786c-0.108,0.248-0.255,0.465-0.441,0.651
		c-0.186,0.186-0.406,0.333-0.66,0.441s-0.527,0.162-0.819,0.162c-0.292,0-0.565-0.054-0.819-0.162s-0.474-0.255-0.66-0.441
		c-0.186-0.186-0.333-0.403-0.438-0.651C-9.552,169.126-9.604,168.864-9.604,168.588z M-8.573,168.6
		c0,0.148,0.026,0.286,0.078,0.414c0.052,0.128,0.125,0.239,0.219,0.333c0.094,0.094,0.204,0.168,0.33,0.222
		c0.126,0.054,0.265,0.081,0.417,0.081c0.147,0,0.285-0.027,0.411-0.081c0.126-0.054,0.236-0.128,0.33-0.222
		c0.094-0.094,0.167-0.205,0.219-0.333c0.052-0.128,0.078-0.266,0.078-0.414c0-0.152-0.026-0.293-0.078-0.423
		c-0.052-0.13-0.125-0.243-0.219-0.339c-0.094-0.096-0.204-0.172-0.33-0.228c-0.126-0.056-0.263-0.084-0.411-0.084
		c-0.152,0-0.291,0.028-0.417,0.084c-0.126,0.056-0.236,0.132-0.33,0.228c-0.094,0.096-0.167,0.209-0.219,0.339
		C-8.546,168.307-8.573,168.448-8.573,168.6z"/>
</g>
<g>
	<path d="M-18.052,223.592c0.16,0,0.287,0.045,0.381,0.135c0.094,0.09,0.141,0.209,0.141,0.357v0.888h-5.952v-0.492
		c0-0.1,0.021-0.205,0.063-0.315c0.042-0.11,0.109-0.209,0.201-0.297l2.634-2.64c0.22-0.224,0.417-0.438,0.591-0.642
		c0.174-0.204,0.319-0.406,0.435-0.606c0.116-0.2,0.205-0.403,0.267-0.609s0.093-0.423,0.093-0.651c0-0.208-0.03-0.391-0.09-0.549
		c-0.06-0.158-0.145-0.291-0.255-0.399c-0.11-0.108-0.242-0.189-0.396-0.243c-0.154-0.054-0.327-0.081-0.519-0.081
		c-0.176,0-0.339,0.025-0.489,0.075c-0.15,0.05-0.283,0.12-0.399,0.21c-0.116,0.09-0.214,0.195-0.294,0.315
		c-0.08,0.12-0.14,0.252-0.18,0.396c-0.068,0.184-0.156,0.306-0.264,0.366s-0.264,0.074-0.468,0.042l-0.78-0.138
		c0.06-0.416,0.176-0.781,0.348-1.095c0.172-0.314,0.387-0.576,0.645-0.786c0.258-0.21,0.554-0.368,0.888-0.474
		s0.693-0.159,1.077-0.159c0.4,0,0.766,0.059,1.098,0.177c0.332,0.118,0.616,0.285,0.852,0.501c0.236,0.216,0.42,0.476,0.552,0.78
		c0.132,0.304,0.198,0.642,0.198,1.014c0,0.32-0.047,0.616-0.141,0.888c-0.094,0.272-0.22,0.532-0.378,0.78
		c-0.158,0.248-0.343,0.488-0.555,0.72s-0.434,0.468-0.666,0.708l-1.956,1.998c0.188-0.056,0.375-0.099,0.561-0.129
		c0.186-0.03,0.363-0.045,0.531-0.045H-18.052z"/>
	<path d="M-10.318,220.634c0,0.756-0.081,1.413-0.243,1.971c-0.162,0.558-0.386,1.019-0.672,1.383
		c-0.286,0.364-0.624,0.635-1.014,0.813c-0.39,0.178-0.811,0.267-1.263,0.267c-0.452,0-0.871-0.089-1.257-0.267
		c-0.386-0.178-0.721-0.449-1.005-0.813c-0.284-0.364-0.506-0.825-0.666-1.383c-0.16-0.558-0.24-1.215-0.24-1.971
		c0-0.76,0.08-1.418,0.24-1.974c0.16-0.556,0.382-1.016,0.666-1.38c0.284-0.364,0.619-0.635,1.005-0.813
		c0.386-0.178,0.805-0.267,1.257-0.267c0.452,0,0.873,0.089,1.263,0.267c0.39,0.178,0.728,0.449,1.014,0.813
		c0.286,0.364,0.51,0.824,0.672,1.38S-10.318,219.874-10.318,220.634z M-11.848,220.634c0-0.628-0.046-1.148-0.138-1.56
		c-0.092-0.412-0.215-0.74-0.369-0.984c-0.154-0.244-0.331-0.415-0.531-0.513c-0.2-0.098-0.408-0.147-0.624-0.147
		c-0.212,0-0.417,0.049-0.615,0.147c-0.198,0.098-0.373,0.269-0.525,0.513c-0.152,0.244-0.273,0.572-0.363,0.984
		c-0.09,0.412-0.135,0.932-0.135,1.56s0.045,1.148,0.135,1.56c0.09,0.412,0.211,0.74,0.363,0.984
		c0.152,0.244,0.327,0.415,0.525,0.513c0.198,0.098,0.403,0.147,0.615,0.147c0.216,0,0.424-0.049,0.624-0.147
		c0.2-0.098,0.377-0.269,0.531-0.513c0.154-0.244,0.277-0.572,0.369-0.984C-11.894,221.782-11.848,221.262-11.848,220.634z"/>
	<path d="M-9.604,218.234c0-0.284,0.053-0.551,0.159-0.801c0.105-0.25,0.252-0.467,0.438-0.651c0.186-0.184,0.406-0.329,0.66-0.435
		s0.527-0.159,0.819-0.159c0.292,0,0.565,0.053,0.819,0.159s0.474,0.251,0.66,0.435c0.186,0.184,0.333,0.401,0.441,0.651
		c0.108,0.25,0.162,0.517,0.162,0.801c0,0.276-0.054,0.538-0.162,0.786c-0.108,0.248-0.255,0.465-0.441,0.651
		c-0.186,0.186-0.406,0.333-0.66,0.441s-0.527,0.162-0.819,0.162c-0.292,0-0.565-0.054-0.819-0.162s-0.474-0.255-0.66-0.441
		c-0.186-0.186-0.333-0.403-0.438-0.651C-9.552,218.771-9.604,218.51-9.604,218.234z M-8.573,218.246
		c0,0.148,0.026,0.286,0.078,0.414c0.052,0.128,0.125,0.239,0.219,0.333c0.094,0.094,0.204,0.168,0.33,0.222
		c0.126,0.054,0.265,0.081,0.417,0.081c0.147,0,0.285-0.027,0.411-0.081c0.126-0.054,0.236-0.128,0.33-0.222
		c0.094-0.094,0.167-0.205,0.219-0.333c0.052-0.128,0.078-0.266,0.078-0.414c0-0.152-0.026-0.293-0.078-0.423
		c-0.052-0.13-0.125-0.243-0.219-0.339c-0.094-0.096-0.204-0.172-0.33-0.228c-0.126-0.056-0.263-0.084-0.411-0.084
		c-0.152,0-0.291,0.028-0.417,0.084c-0.126,0.056-0.236,0.132-0.33,0.228c-0.094,0.096-0.167,0.209-0.219,0.339
		C-8.546,217.953-8.573,218.094-8.573,218.246z"/>
</g>
<g>
	<path d="M-18.052,273.235c0.16,0,0.287,0.045,0.381,0.135c0.094,0.091,0.141,0.209,0.141,0.357v0.889h-5.952v-0.492
		c0-0.1,0.021-0.205,0.063-0.315s0.109-0.209,0.201-0.297l2.634-2.64c0.22-0.225,0.417-0.438,0.591-0.643
		c0.174-0.203,0.319-0.406,0.435-0.605c0.116-0.2,0.205-0.403,0.267-0.609s0.093-0.423,0.093-0.65c0-0.209-0.03-0.392-0.09-0.549
		c-0.06-0.158-0.145-0.291-0.255-0.4c-0.11-0.107-0.242-0.188-0.396-0.242c-0.154-0.055-0.327-0.081-0.519-0.081
		c-0.176,0-0.339,0.024-0.489,0.075c-0.15,0.05-0.283,0.119-0.399,0.21c-0.116,0.09-0.214,0.194-0.294,0.315
		c-0.08,0.119-0.14,0.252-0.18,0.396c-0.068,0.185-0.156,0.306-0.264,0.366c-0.108,0.06-0.264,0.074-0.468,0.041l-0.78-0.137
		c0.06-0.416,0.176-0.781,0.348-1.096c0.172-0.314,0.387-0.576,0.645-0.786c0.258-0.21,0.554-0.368,0.888-0.474
		s0.693-0.159,1.077-0.159c0.4,0,0.766,0.06,1.098,0.177c0.332,0.118,0.616,0.285,0.852,0.501c0.236,0.216,0.42,0.476,0.552,0.78
		c0.132,0.305,0.198,0.643,0.198,1.014c0,0.32-0.047,0.616-0.141,0.889c-0.094,0.271-0.22,0.531-0.378,0.779
		c-0.158,0.248-0.343,0.488-0.555,0.721c-0.212,0.231-0.434,0.468-0.666,0.707l-1.956,1.998c0.188-0.056,0.375-0.099,0.561-0.129
		c0.186-0.029,0.363-0.045,0.531-0.045H-18.052z"/>
	<path d="M-14.542,269.089c0.192-0.04,0.376-0.069,0.552-0.087c0.176-0.018,0.346-0.027,0.51-0.027c0.456,0,0.858,0.068,1.206,0.204
		c0.348,0.136,0.64,0.324,0.876,0.563c0.236,0.24,0.414,0.521,0.534,0.844c0.12,0.322,0.18,0.669,0.18,1.041
		c0,0.46-0.081,0.88-0.243,1.26c-0.162,0.38-0.387,0.705-0.675,0.975c-0.288,0.271-0.629,0.479-1.023,0.627
		c-0.394,0.148-0.823,0.223-1.287,0.223c-0.272,0-0.53-0.028-0.774-0.084c-0.244-0.057-0.473-0.131-0.687-0.225
		c-0.214-0.095-0.412-0.203-0.594-0.324c-0.182-0.123-0.345-0.252-0.489-0.387l0.456-0.631c0.096-0.136,0.222-0.203,0.378-0.203
		c0.1,0,0.202,0.031,0.306,0.096c0.104,0.063,0.223,0.134,0.357,0.209c0.134,0.076,0.292,0.146,0.474,0.211
		c0.182,0.064,0.401,0.096,0.657,0.096c0.272,0,0.512-0.044,0.72-0.132s0.381-0.211,0.519-0.369
		c0.138-0.158,0.242-0.347,0.312-0.563c0.07-0.219,0.105-0.455,0.105-0.711c0-0.473-0.137-0.842-0.411-1.107
		s-0.679-0.399-1.215-0.399c-0.412,0-0.834,0.076-1.266,0.228l-0.924-0.264l0.72-4.211h4.284v0.629c0,0.213-0.066,0.385-0.198,0.517
		c-0.132,0.132-0.356,0.198-0.672,0.198h-2.382L-14.542,269.089z"/>
	<path d="M-9.604,267.877c0-0.284,0.053-0.551,0.159-0.801c0.105-0.25,0.252-0.467,0.438-0.651c0.186-0.185,0.406-0.329,0.66-0.435
		c0.254-0.106,0.527-0.16,0.819-0.16c0.292,0,0.565,0.054,0.819,0.16c0.254,0.105,0.474,0.25,0.66,0.435
		c0.186,0.185,0.333,0.401,0.441,0.651c0.108,0.25,0.162,0.517,0.162,0.801c0,0.275-0.054,0.537-0.162,0.785
		c-0.108,0.248-0.255,0.466-0.441,0.652c-0.186,0.186-0.406,0.332-0.66,0.44s-0.527,0.161-0.819,0.161
		c-0.292,0-0.565-0.053-0.819-0.161s-0.474-0.255-0.66-0.44c-0.186-0.187-0.333-0.404-0.438-0.652
		C-9.552,268.415-9.604,268.153-9.604,267.877z M-8.573,267.889c0,0.148,0.026,0.286,0.078,0.414
		c0.052,0.128,0.125,0.239,0.219,0.333c0.094,0.095,0.204,0.168,0.33,0.222c0.126,0.055,0.265,0.082,0.417,0.082
		c0.147,0,0.285-0.027,0.411-0.082c0.126-0.054,0.236-0.127,0.33-0.222c0.094-0.094,0.167-0.205,0.219-0.333
		c0.052-0.128,0.078-0.266,0.078-0.414c0-0.152-0.026-0.293-0.078-0.423c-0.052-0.13-0.125-0.243-0.219-0.339
		s-0.204-0.172-0.33-0.229c-0.126-0.056-0.263-0.084-0.411-0.084c-0.152,0-0.291,0.028-0.417,0.084
		c-0.126,0.057-0.236,0.133-0.33,0.229c-0.094,0.096-0.167,0.209-0.219,0.339C-8.546,267.596-8.573,267.737-8.573,267.889z"/>
</g>
<g>
	<path d="M-23.29,318.004c0.06-0.416,0.176-0.781,0.348-1.096c0.172-0.314,0.387-0.576,0.645-0.786
		c0.258-0.21,0.554-0.368,0.888-0.474s0.693-0.159,1.077-0.159c0.4,0,0.761,0.058,1.083,0.171c0.322,0.114,0.597,0.271,0.825,0.475
		c0.228,0.201,0.403,0.438,0.525,0.711c0.122,0.271,0.183,0.565,0.183,0.881c0,0.277-0.031,0.52-0.093,0.729
		s-0.151,0.394-0.267,0.55c-0.116,0.155-0.26,0.287-0.432,0.396c-0.172,0.108-0.366,0.198-0.582,0.271
		c0.52,0.164,0.908,0.414,1.164,0.75c0.256,0.336,0.384,0.758,0.384,1.266c0,0.432-0.08,0.814-0.24,1.146
		c-0.16,0.333-0.376,0.611-0.648,0.837c-0.272,0.227-0.587,0.397-0.945,0.514c-0.358,0.115-0.737,0.174-1.137,0.174
		c-0.436,0-0.816-0.051-1.14-0.15c-0.324-0.1-0.606-0.248-0.846-0.443c-0.24-0.196-0.444-0.437-0.612-0.721
		c-0.168-0.283-0.312-0.611-0.432-0.984l0.654-0.27c0.172-0.072,0.333-0.091,0.483-0.057c0.15,0.033,0.259,0.115,0.327,0.242
		c0.072,0.141,0.151,0.279,0.237,0.414c0.086,0.137,0.189,0.258,0.309,0.363c0.12,0.106,0.261,0.192,0.423,0.258
		c0.162,0.066,0.355,0.1,0.579,0.1c0.252,0,0.472-0.041,0.66-0.123s0.345-0.189,0.471-0.321s0.22-0.278,0.282-0.44
		s0.093-0.325,0.093-0.489c0-0.208-0.022-0.397-0.066-0.567c-0.044-0.17-0.136-0.314-0.276-0.435
		c-0.14-0.12-0.341-0.214-0.603-0.282c-0.262-0.068-0.613-0.102-1.053-0.102v-1.057c0.364-0.004,0.666-0.037,0.906-0.102
		c0.24-0.064,0.431-0.153,0.573-0.268c0.142-0.113,0.241-0.25,0.297-0.41s0.084-0.336,0.084-0.528c0-0.408-0.114-0.718-0.342-0.931
		c-0.228-0.211-0.532-0.317-0.912-0.317c-0.176,0-0.338,0.024-0.486,0.075c-0.148,0.05-0.281,0.119-0.399,0.21
		c-0.118,0.09-0.217,0.194-0.297,0.315c-0.08,0.119-0.14,0.252-0.18,0.396c-0.068,0.185-0.157,0.306-0.267,0.366
		c-0.11,0.06-0.265,0.074-0.465,0.041L-23.29,318.004z"/>
	<path d="M-10.318,319.924c0,0.756-0.081,1.412-0.243,1.971c-0.162,0.558-0.386,1.019-0.672,1.383
		c-0.286,0.363-0.624,0.635-1.014,0.813s-0.811,0.268-1.263,0.268c-0.452,0-0.871-0.09-1.257-0.268s-0.721-0.449-1.005-0.813
		c-0.284-0.364-0.506-0.825-0.666-1.383c-0.16-0.559-0.24-1.215-0.24-1.971c0-0.761,0.08-1.418,0.24-1.975
		c0.16-0.557,0.382-1.016,0.666-1.38c0.284-0.364,0.619-0.636,1.005-0.813s0.805-0.267,1.257-0.267c0.452,0,0.873,0.089,1.263,0.267
		s0.728,0.449,1.014,0.813c0.286,0.364,0.51,0.823,0.672,1.38S-10.318,319.164-10.318,319.924z M-11.848,319.924
		c0-0.629-0.046-1.148-0.138-1.561c-0.092-0.412-0.215-0.74-0.369-0.984c-0.154-0.244-0.331-0.414-0.531-0.513
		c-0.2-0.099-0.408-0.147-0.624-0.147c-0.212,0-0.417,0.049-0.615,0.147c-0.198,0.099-0.373,0.269-0.525,0.513
		c-0.152,0.244-0.273,0.572-0.363,0.984c-0.09,0.412-0.135,0.932-0.135,1.561c0,0.627,0.045,1.147,0.135,1.56
		c0.09,0.411,0.211,0.739,0.363,0.983c0.152,0.244,0.327,0.416,0.525,0.514c0.198,0.098,0.403,0.146,0.615,0.146
		c0.216,0,0.424-0.049,0.624-0.146c0.2-0.098,0.377-0.27,0.531-0.514c0.154-0.244,0.277-0.572,0.369-0.983
		C-11.894,321.072-11.848,320.551-11.848,319.924z"/>
	<path d="M-9.604,317.524c0-0.284,0.053-0.551,0.159-0.801c0.105-0.25,0.252-0.467,0.438-0.651c0.186-0.185,0.406-0.329,0.66-0.435
		c0.254-0.106,0.527-0.16,0.819-0.16c0.292,0,0.565,0.054,0.819,0.16c0.254,0.105,0.474,0.25,0.66,0.435
		c0.186,0.185,0.333,0.401,0.441,0.651c0.108,0.25,0.162,0.517,0.162,0.801c0,0.275-0.054,0.537-0.162,0.785
		c-0.108,0.248-0.255,0.466-0.441,0.652c-0.186,0.186-0.406,0.332-0.66,0.44s-0.527,0.161-0.819,0.161
		c-0.292,0-0.565-0.053-0.819-0.161s-0.474-0.255-0.66-0.44c-0.186-0.187-0.333-0.404-0.438-0.652
		C-9.552,318.061-9.604,317.799-9.604,317.524z M-8.573,317.536c0,0.148,0.026,0.286,0.078,0.414
		c0.052,0.128,0.125,0.239,0.219,0.333c0.094,0.095,0.204,0.168,0.33,0.222c0.126,0.055,0.265,0.082,0.417,0.082
		c0.147,0,0.285-0.027,0.411-0.082c0.126-0.054,0.236-0.127,0.33-0.222c0.094-0.094,0.167-0.205,0.219-0.333
		c0.052-0.128,0.078-0.266,0.078-0.414c0-0.152-0.026-0.293-0.078-0.423c-0.052-0.13-0.125-0.243-0.219-0.339
		s-0.204-0.172-0.33-0.229c-0.126-0.056-0.263-0.084-0.411-0.084c-0.152,0-0.291,0.028-0.417,0.084
		c-0.126,0.057-0.236,0.133-0.33,0.229c-0.094,0.096-0.167,0.209-0.219,0.339C-8.546,317.243-8.573,317.383-8.573,317.536z"/>
</g>
<g>
	<path d="M-23.29,367.647c0.06-0.416,0.176-0.781,0.348-1.095c0.172-0.313,0.387-0.576,0.645-0.786
		c0.258-0.21,0.554-0.367,0.888-0.474s0.693-0.159,1.077-0.159c0.4,0,0.761,0.057,1.083,0.171s0.597,0.272,0.825,0.474
		c0.228,0.203,0.403,0.439,0.525,0.711c0.122,0.272,0.183,0.566,0.183,0.883c0,0.275-0.031,0.519-0.093,0.729
		s-0.151,0.393-0.267,0.549c-0.116,0.156-0.26,0.289-0.432,0.396c-0.172,0.107-0.366,0.197-0.582,0.27
		c0.52,0.164,0.908,0.414,1.164,0.75c0.256,0.336,0.384,0.758,0.384,1.266c0,0.433-0.08,0.814-0.24,1.146
		c-0.16,0.332-0.376,0.611-0.648,0.838c-0.272,0.226-0.587,0.396-0.945,0.512c-0.358,0.117-0.737,0.175-1.137,0.175
		c-0.436,0-0.816-0.05-1.14-0.15c-0.324-0.1-0.606-0.247-0.846-0.444c-0.24-0.195-0.444-0.436-0.612-0.719
		c-0.168-0.285-0.312-0.613-0.432-0.984l0.654-0.271c0.172-0.071,0.333-0.091,0.483-0.057c0.15,0.034,0.259,0.114,0.327,0.243
		c0.072,0.14,0.151,0.277,0.237,0.414c0.086,0.136,0.189,0.257,0.309,0.363c0.12,0.105,0.261,0.191,0.423,0.258
		c0.162,0.065,0.355,0.099,0.579,0.099c0.252,0,0.472-0.041,0.66-0.123s0.345-0.188,0.471-0.321c0.126-0.132,0.22-0.279,0.282-0.441
		s0.093-0.324,0.093-0.488c0-0.208-0.022-0.396-0.066-0.566c-0.044-0.171-0.136-0.316-0.276-0.436
		c-0.14-0.12-0.341-0.214-0.603-0.282c-0.262-0.067-0.613-0.103-1.053-0.103v-1.055c0.364-0.005,0.666-0.039,0.906-0.103
		c0.24-0.063,0.431-0.153,0.573-0.267c0.142-0.115,0.241-0.252,0.297-0.412c0.056-0.159,0.084-0.336,0.084-0.527
		c0-0.408-0.114-0.719-0.342-0.93c-0.228-0.213-0.532-0.318-0.912-0.318c-0.176,0-0.338,0.025-0.486,0.074
		c-0.148,0.051-0.281,0.121-0.399,0.211c-0.118,0.09-0.217,0.195-0.297,0.314c-0.08,0.12-0.14,0.252-0.18,0.396
		c-0.068,0.184-0.157,0.306-0.267,0.365c-0.11,0.061-0.265,0.074-0.465,0.043L-23.29,367.647z"/>
	<path d="M-14.542,368.379c0.192-0.04,0.376-0.069,0.552-0.087c0.176-0.019,0.346-0.027,0.51-0.027c0.456,0,0.858,0.068,1.206,0.204
		c0.348,0.137,0.64,0.324,0.876,0.564c0.236,0.24,0.414,0.521,0.534,0.843c0.12,0.321,0.18,0.669,0.18,1.041
		c0,0.46-0.081,0.88-0.243,1.26c-0.162,0.38-0.387,0.705-0.675,0.976c-0.288,0.27-0.629,0.479-1.023,0.627
		c-0.394,0.147-0.823,0.222-1.287,0.222c-0.272,0-0.53-0.028-0.774-0.084s-0.473-0.132-0.687-0.226s-0.412-0.201-0.594-0.324
		c-0.182-0.121-0.345-0.25-0.489-0.387l0.456-0.63c0.096-0.136,0.222-0.204,0.378-0.204c0.1,0,0.202,0.032,0.306,0.096
		c0.104,0.064,0.223,0.135,0.357,0.211c0.134,0.076,0.292,0.146,0.474,0.209c0.182,0.064,0.401,0.097,0.657,0.097
		c0.272,0,0.512-0.044,0.72-0.132s0.381-0.211,0.519-0.369c0.138-0.158,0.242-0.346,0.312-0.564c0.07-0.218,0.105-0.455,0.105-0.711
		c0-0.472-0.137-0.84-0.411-1.106s-0.679-0.399-1.215-0.399c-0.412,0-0.834,0.076-1.266,0.229l-0.924-0.264l0.72-4.213h4.284v0.631
		c0,0.211-0.066,0.383-0.198,0.516c-0.132,0.132-0.356,0.197-0.672,0.197h-2.382L-14.542,368.379z"/>
	<path d="M-9.604,367.167c0-0.284,0.053-0.552,0.159-0.802c0.105-0.25,0.252-0.467,0.438-0.65c0.186-0.184,0.406-0.329,0.66-0.436
		c0.254-0.105,0.527-0.158,0.819-0.158c0.292,0,0.565,0.053,0.819,0.158c0.254,0.106,0.474,0.252,0.66,0.436
		c0.186,0.184,0.333,0.4,0.441,0.65c0.108,0.25,0.162,0.518,0.162,0.802c0,0.276-0.054,0.538-0.162,0.786
		c-0.108,0.248-0.255,0.465-0.441,0.65c-0.186,0.186-0.406,0.334-0.66,0.441s-0.527,0.162-0.819,0.162
		c-0.292,0-0.565-0.055-0.819-0.162s-0.474-0.256-0.66-0.441c-0.186-0.186-0.333-0.402-0.438-0.65
		C-9.552,367.706-9.604,367.444-9.604,367.167z M-8.573,367.179c0,0.147,0.026,0.286,0.078,0.414
		c0.052,0.128,0.125,0.239,0.219,0.333c0.094,0.094,0.204,0.168,0.33,0.223c0.126,0.053,0.265,0.08,0.417,0.08
		c0.147,0,0.285-0.027,0.411-0.08c0.126-0.055,0.236-0.129,0.33-0.223s0.167-0.205,0.219-0.333c0.052-0.128,0.078-0.267,0.078-0.414
		c0-0.151-0.026-0.293-0.078-0.423c-0.052-0.13-0.125-0.243-0.219-0.339c-0.094-0.097-0.204-0.173-0.33-0.228
		c-0.126-0.057-0.263-0.084-0.411-0.084c-0.152,0-0.291,0.027-0.417,0.084c-0.126,0.055-0.236,0.131-0.33,0.228
		c-0.094,0.096-0.167,0.209-0.219,0.339C-8.546,366.886-8.573,367.028-8.573,367.179z"/>
</g>
<g>
	<path d="M-17.284,420.28v0.857c0,0.08-0.026,0.15-0.078,0.207c-0.052,0.059-0.126,0.088-0.222,0.088h-0.792v2.117h-1.29v-2.117
		h-3.66c-0.1,0-0.188-0.031-0.264-0.094c-0.076-0.062-0.124-0.139-0.144-0.23l-0.156-0.75l4.11-5.49h1.404v5.412H-17.284z
		 M-19.666,420.28v-2.838c0-0.268,0.018-0.564,0.054-0.889l-2.694,3.727H-19.666z"/>
	<path d="M-10.318,419.211c0,0.756-0.081,1.414-0.243,1.971c-0.162,0.559-0.386,1.02-0.672,1.384
		c-0.286,0.364-0.624,0.635-1.014,0.813c-0.39,0.178-0.811,0.267-1.263,0.267c-0.452,0-0.871-0.089-1.257-0.267
		c-0.386-0.179-0.721-0.449-1.005-0.813c-0.284-0.364-0.506-0.825-0.666-1.384c-0.16-0.557-0.24-1.215-0.24-1.971
		c0-0.76,0.08-1.418,0.24-1.974c0.16-0.556,0.382-1.017,0.666-1.38c0.284-0.364,0.619-0.635,1.005-0.813
		c0.386-0.179,0.805-0.268,1.257-0.268c0.452,0,0.873,0.089,1.263,0.268c0.39,0.178,0.728,0.448,1.014,0.813
		c0.286,0.363,0.51,0.824,0.672,1.38S-10.318,418.452-10.318,419.211z M-11.848,419.211c0-0.627-0.046-1.147-0.138-1.56
		c-0.092-0.412-0.215-0.74-0.369-0.983c-0.154-0.244-0.331-0.416-0.531-0.514c-0.2-0.098-0.408-0.146-0.624-0.146
		c-0.212,0-0.417,0.049-0.615,0.146c-0.198,0.098-0.373,0.27-0.525,0.514c-0.152,0.243-0.273,0.571-0.363,0.983
		c-0.09,0.412-0.135,0.933-0.135,1.56c0,0.629,0.045,1.148,0.135,1.561c0.09,0.412,0.211,0.74,0.363,0.984
		c0.152,0.244,0.327,0.414,0.525,0.513c0.198,0.098,0.403,0.147,0.615,0.147c0.216,0,0.424-0.05,0.624-0.147
		c0.2-0.099,0.377-0.269,0.531-0.513c0.154-0.244,0.277-0.572,0.369-0.984C-11.894,420.36-11.848,419.84-11.848,419.211z"/>
	<path d="M-9.604,416.812c0-0.284,0.053-0.552,0.159-0.802c0.105-0.25,0.252-0.467,0.438-0.65c0.186-0.184,0.406-0.329,0.66-0.436
		c0.254-0.105,0.527-0.158,0.819-0.158c0.292,0,0.565,0.053,0.819,0.158c0.254,0.106,0.474,0.252,0.66,0.436
		c0.186,0.184,0.333,0.4,0.441,0.65c0.108,0.25,0.162,0.518,0.162,0.802c0,0.276-0.054,0.538-0.162,0.786
		c-0.108,0.248-0.255,0.465-0.441,0.65c-0.186,0.186-0.406,0.334-0.66,0.441s-0.527,0.162-0.819,0.162
		c-0.292,0-0.565-0.055-0.819-0.162s-0.474-0.256-0.66-0.441c-0.186-0.186-0.333-0.402-0.438-0.65
		C-9.552,417.35-9.604,417.088-9.604,416.812z M-8.573,416.824c0,0.147,0.026,0.286,0.078,0.414
		c0.052,0.128,0.125,0.239,0.219,0.333c0.094,0.094,0.204,0.168,0.33,0.223c0.126,0.053,0.265,0.08,0.417,0.08
		c0.147,0,0.285-0.027,0.411-0.08c0.126-0.055,0.236-0.129,0.33-0.223s0.167-0.205,0.219-0.333c0.052-0.128,0.078-0.267,0.078-0.414
		c0-0.151-0.026-0.293-0.078-0.423c-0.052-0.13-0.125-0.243-0.219-0.339c-0.094-0.097-0.204-0.173-0.33-0.228
		c-0.126-0.057-0.263-0.084-0.411-0.084c-0.152,0-0.291,0.027-0.417,0.084c-0.126,0.055-0.236,0.131-0.33,0.228
		c-0.094,0.096-0.167,0.209-0.219,0.339C-8.546,416.531-8.573,416.672-8.573,416.824z"/>
</g>
<g>
	<path d="M-17.284,469.921v0.858c0,0.08-0.026,0.148-0.078,0.207c-0.052,0.058-0.126,0.086-0.222,0.086h-0.792v2.119h-1.29v-2.119
		h-3.66c-0.1,0-0.188-0.03-0.264-0.092c-0.076-0.063-0.124-0.14-0.144-0.231L-23.89,470l4.11-5.49h1.404v5.412H-17.284z
		 M-19.666,469.921v-2.838c0-0.269,0.018-0.563,0.054-0.888l-2.694,3.726H-19.666z"/>
	<path d="M-14.542,467.666c0.192-0.04,0.376-0.069,0.552-0.087c0.176-0.018,0.346-0.027,0.51-0.027c0.456,0,0.858,0.068,1.206,0.204
		c0.348,0.136,0.64,0.324,0.876,0.563c0.236,0.24,0.414,0.521,0.534,0.844c0.12,0.322,0.18,0.669,0.18,1.041
		c0,0.46-0.081,0.88-0.243,1.26c-0.162,0.38-0.387,0.705-0.675,0.975c-0.288,0.271-0.629,0.479-1.023,0.627
		c-0.394,0.148-0.823,0.223-1.287,0.223c-0.272,0-0.53-0.028-0.774-0.084c-0.244-0.057-0.473-0.131-0.687-0.225
		c-0.214-0.095-0.412-0.203-0.594-0.324c-0.182-0.123-0.345-0.252-0.489-0.387l0.456-0.631c0.096-0.136,0.222-0.203,0.378-0.203
		c0.1,0,0.202,0.031,0.306,0.096c0.104,0.063,0.223,0.134,0.357,0.209c0.134,0.076,0.292,0.146,0.474,0.211
		c0.182,0.064,0.401,0.096,0.657,0.096c0.272,0,0.512-0.044,0.72-0.132s0.381-0.211,0.519-0.369
		c0.138-0.158,0.242-0.347,0.312-0.563c0.07-0.219,0.105-0.455,0.105-0.711c0-0.473-0.137-0.842-0.411-1.107
		s-0.679-0.399-1.215-0.399c-0.412,0-0.834,0.076-1.266,0.228l-0.924-0.264l0.72-4.211h4.284v0.629c0,0.213-0.066,0.385-0.198,0.517
		c-0.132,0.132-0.356,0.198-0.672,0.198h-2.382L-14.542,467.666z"/>
	<path d="M-9.604,466.454c0-0.284,0.053-0.551,0.159-0.801c0.105-0.25,0.252-0.467,0.438-0.651c0.186-0.185,0.406-0.329,0.66-0.435
		c0.254-0.106,0.527-0.16,0.819-0.16c0.292,0,0.565,0.054,0.819,0.16c0.254,0.105,0.474,0.25,0.66,0.435
		c0.186,0.185,0.333,0.401,0.441,0.651c0.108,0.25,0.162,0.517,0.162,0.801c0,0.275-0.054,0.537-0.162,0.785
		c-0.108,0.248-0.255,0.466-0.441,0.652c-0.186,0.186-0.406,0.332-0.66,0.44s-0.527,0.161-0.819,0.161
		c-0.292,0-0.565-0.053-0.819-0.161s-0.474-0.255-0.66-0.44c-0.186-0.187-0.333-0.404-0.438-0.652
		C-9.552,466.991-9.604,466.729-9.604,466.454z M-8.573,466.465c0,0.148,0.026,0.286,0.078,0.414
		c0.052,0.128,0.125,0.239,0.219,0.333c0.094,0.095,0.204,0.168,0.33,0.222c0.126,0.055,0.265,0.082,0.417,0.082
		c0.147,0,0.285-0.027,0.411-0.082c0.126-0.054,0.236-0.127,0.33-0.222c0.094-0.094,0.167-0.205,0.219-0.333
		c0.052-0.128,0.078-0.266,0.078-0.414c0-0.152-0.026-0.293-0.078-0.423c-0.052-0.13-0.125-0.243-0.219-0.339
		s-0.204-0.172-0.33-0.229c-0.126-0.056-0.263-0.084-0.411-0.084c-0.152,0-0.291,0.028-0.417,0.084
		c-0.126,0.057-0.236,0.133-0.33,0.229c-0.094,0.096-0.167,0.209-0.219,0.339C-8.546,466.172-8.573,466.313-8.573,466.465z"/>
</g>
<g>
	<path d="M-21.502,517.666c0.192-0.04,0.376-0.069,0.552-0.087c0.176-0.018,0.346-0.027,0.51-0.027c0.456,0,0.858,0.068,1.206,0.204
		c0.348,0.136,0.64,0.324,0.876,0.563c0.236,0.24,0.414,0.521,0.534,0.844c0.12,0.322,0.18,0.669,0.18,1.041
		c0,0.46-0.081,0.88-0.243,1.26c-0.162,0.38-0.387,0.705-0.675,0.975c-0.288,0.271-0.629,0.479-1.023,0.627
		c-0.394,0.148-0.823,0.223-1.287,0.223c-0.272,0-0.53-0.028-0.774-0.084c-0.244-0.057-0.473-0.131-0.687-0.225
		c-0.214-0.095-0.412-0.203-0.594-0.324c-0.182-0.123-0.345-0.252-0.489-0.387l0.456-0.631c0.096-0.136,0.222-0.203,0.378-0.203
		c0.1,0,0.202,0.031,0.306,0.096c0.104,0.063,0.223,0.134,0.357,0.209c0.134,0.076,0.292,0.146,0.474,0.211
		c0.182,0.064,0.401,0.096,0.657,0.096c0.272,0,0.512-0.044,0.72-0.132s0.381-0.211,0.519-0.369
		c0.138-0.158,0.242-0.347,0.312-0.563c0.07-0.219,0.105-0.455,0.105-0.711c0-0.473-0.137-0.842-0.411-1.107
		s-0.679-0.399-1.215-0.399c-0.412,0-0.834,0.076-1.266,0.228l-0.924-0.264l0.72-4.211h4.284v0.629c0,0.213-0.066,0.385-0.198,0.517
		c-0.132,0.132-0.356,0.198-0.672,0.198h-2.382L-21.502,517.666z"/>
	<path d="M-10.318,518.854c0,0.756-0.081,1.412-0.243,1.971c-0.162,0.558-0.386,1.019-0.672,1.383
		c-0.286,0.363-0.624,0.635-1.014,0.813s-0.811,0.268-1.263,0.268c-0.452,0-0.871-0.09-1.257-0.268s-0.721-0.449-1.005-0.813
		c-0.284-0.364-0.506-0.825-0.666-1.383c-0.16-0.559-0.24-1.215-0.24-1.971c0-0.761,0.08-1.418,0.24-1.975
		c0.16-0.557,0.382-1.016,0.666-1.38c0.284-0.364,0.619-0.636,1.005-0.813s0.805-0.267,1.257-0.267c0.452,0,0.873,0.089,1.263,0.267
		s0.728,0.449,1.014,0.813c0.286,0.364,0.51,0.823,0.672,1.38S-10.318,518.093-10.318,518.854z M-11.848,518.854
		c0-0.629-0.046-1.148-0.138-1.561c-0.092-0.412-0.215-0.74-0.369-0.984c-0.154-0.244-0.331-0.414-0.531-0.513
		c-0.2-0.099-0.408-0.147-0.624-0.147c-0.212,0-0.417,0.049-0.615,0.147c-0.198,0.099-0.373,0.269-0.525,0.513
		c-0.152,0.244-0.273,0.572-0.363,0.984c-0.09,0.412-0.135,0.932-0.135,1.561c0,0.627,0.045,1.147,0.135,1.56
		c0.09,0.411,0.211,0.739,0.363,0.983c0.152,0.244,0.327,0.416,0.525,0.514c0.198,0.098,0.403,0.146,0.615,0.146
		c0.216,0,0.424-0.049,0.624-0.146c0.2-0.098,0.377-0.27,0.531-0.514c0.154-0.244,0.277-0.572,0.369-0.983
		C-11.894,520.001-11.848,519.481-11.848,518.854z"/>
	<path d="M-9.604,516.454c0-0.284,0.053-0.551,0.159-0.801c0.105-0.25,0.252-0.467,0.438-0.651c0.186-0.185,0.406-0.329,0.66-0.435
		c0.254-0.106,0.527-0.16,0.819-0.16c0.292,0,0.565,0.054,0.819,0.16c0.254,0.105,0.474,0.25,0.66,0.435
		c0.186,0.185,0.333,0.401,0.441,0.651c0.108,0.25,0.162,0.517,0.162,0.801c0,0.275-0.054,0.537-0.162,0.785
		c-0.108,0.248-0.255,0.466-0.441,0.652c-0.186,0.186-0.406,0.332-0.66,0.44s-0.527,0.161-0.819,0.161
		c-0.292,0-0.565-0.053-0.819-0.161s-0.474-0.255-0.66-0.44c-0.186-0.187-0.333-0.404-0.438-0.652
		C-9.552,516.991-9.604,516.729-9.604,516.454z M-8.573,516.465c0,0.148,0.026,0.286,0.078,0.414
		c0.052,0.128,0.125,0.239,0.219,0.333c0.094,0.095,0.204,0.168,0.33,0.222c0.126,0.055,0.265,0.082,0.417,0.082
		c0.147,0,0.285-0.027,0.411-0.082c0.126-0.054,0.236-0.127,0.33-0.222c0.094-0.094,0.167-0.205,0.219-0.333
		c0.052-0.128,0.078-0.266,0.078-0.414c0-0.152-0.026-0.293-0.078-0.423c-0.052-0.13-0.125-0.243-0.219-0.339
		s-0.204-0.172-0.33-0.229c-0.126-0.056-0.263-0.084-0.411-0.084c-0.152,0-0.291,0.028-0.417,0.084
		c-0.126,0.057-0.236,0.133-0.33,0.229c-0.094,0.096-0.167,0.209-0.219,0.339C-8.546,516.172-8.573,516.313-8.573,516.465z"/>
</g>
</svg>
